<svg data-v-fde0c5aa="" xmlns="http://www.w3.org/2000/svg" viewBox="0 0 300 300" class="iconAbove"><!----><defs data-v-fde0c5aa=""><!----></defs><rect data-v-fde0c5aa="" fill="none" x="0" y="0" width="300px" height="300px" class="logo-background-square"></rect><defs data-v-fde0c5aa=""><!----></defs><g data-v-fde0c5aa="" id="09164cd8-8663-4577-8113-0fca29ae89b5" fill="#0f2137" transform="matrix(5.1126298904418945,0,0,5.1126298904418945,37.85446826092511,180.29410244040693)"><path d="M2.93 12.67L1.00 12.67L1.00 7.21L-0.02 7.21L-0.02 5.66L1.00 5.66L1.00 4.74L1.00 4.74Q1.00 3.72 1.69 3.07L1.69 3.07L1.69 3.07Q2.37 2.42 3.53 2.42L3.53 2.42L3.53 2.42Q4.76 2.42 5.45 3.10L5.45 3.10L4.43 4.24L4.43 4.24Q4.24 4.03 3.75 4.03L3.75 4.03L3.75 4.03Q3.38 4.03 3.15 4.25L3.15 4.25L3.15 4.25Q2.93 4.47 2.93 5.02L2.93 5.02L2.93 5.66L3.95 5.66L3.95 7.21L2.93 7.21L2.93 12.67ZM9.05 12.74L9.05 12.74Q7.56 12.74 6.56 11.74L6.56 11.74L6.56 11.74Q5.56 10.74 5.56 9.26L5.56 9.26L5.56 9.26Q5.56 7.77 6.56 6.77L6.56 6.77L6.56 6.77Q7.56 5.77 9.05 5.77L9.05 5.77L9.05 5.77Q10.54 5.77 11.54 6.77L11.54 6.77L11.54 6.77Q12.54 7.77 12.54 9.26L12.54 9.26L12.54 9.26Q12.54 10.75 11.54 11.74L11.54 11.74L11.54 11.74Q10.54 12.74 9.05 12.74L9.05 12.74ZM9.04 11.09L9.04 11.09L9.04 11.09Q9.82 11.09 10.31 10.56L10.31 10.56L10.31 10.56Q10.79 10.04 10.79 9.26L10.79 9.26L10.79 9.26Q10.79 8.48 10.31 7.96L10.31 7.96L10.31 7.96Q9.82 7.43 9.04 7.43L9.04 7.43L9.04 7.43Q8.26 7.43 7.78 7.96L7.78 7.96L7.78 7.96Q7.29 8.48 7.29 9.26L7.29 9.26L7.29 9.26Q7.29 10.04 7.78 10.56L7.78 10.56L7.78 10.56Q8.26 11.09 9.04 11.09ZM15.60 5.83L15.60 6.59L15.60 6.59Q16.33 5.84 17.38 5.84L17.38 5.84L17.38 5.84Q17.72 5.84 18.02 5.89L18.02 5.89L17.72 7.78L17.72 7.78Q17.38 7.48 16.76 7.46L16.76 7.46L16.76 7.46Q16.06 7.51 15.60 8.47L15.60 8.47L15.60 12.67L13.69 12.67L13.69 6.04L15.60 5.83ZM21.16 8.30L21.16 8.30L21.16 12.67L19.25 12.67L19.25 6.04L21.16 5.83L21.16 6.44L21.16 6.44Q21.81 5.84 22.80 5.84L22.80 5.84L22.80 5.84Q24.10 5.84 24.79 6.62L24.79 6.62L24.79 6.62Q25.54 5.84 27.04 5.84L27.04 5.84L27.04 5.84Q28.34 5.84 29.03 6.62L29.03 6.62L29.03 6.62Q29.71 7.41 29.71 8.44L29.71 8.44L29.71 12.67L27.79 12.67L27.79 8.91L27.79 8.91Q27.79 8.23 27.49 7.85L27.49 7.85L27.49 7.85Q27.18 7.48 26.49 7.46L26.49 7.46L26.49 7.46Q25.92 7.50 25.50 8.21L25.50 8.21L25.50 8.21Q25.47 8.42 25.47 8.64L25.47 8.64L25.47 12.67L23.56 12.67L23.56 8.91L23.56 8.91Q23.56 8.23 23.25 7.85L23.25 7.85L23.25 7.85Q22.94 7.48 22.25 7.46L22.25 7.46L22.25 7.46Q21.62 7.50 21.16 8.30ZM33.76 5.80L33.76 5.80Q34.73 5.80 35.26 6.03L35.26 6.03L35.26 6.03Q35.79 6.26 36.26 6.72L36.26 6.72L35.19 7.92L35.19 7.92Q34.73 7.37 34.03 7.37L34.03 7.37L34.03 7.37Q33.34 7.37 33.11 7.63L33.11 7.63L33.11 7.63Q32.87 7.88 33.11 8.09L33.11 8.09L33.11 8.09Q33.34 8.30 34.03 8.44L34.03 8.44L34.03 8.44Q35.05 8.53 35.70 9.02L35.70 9.02L35.70 9.02Q36.35 9.50 36.35 10.71L36.35 10.71L36.35 10.71Q36.35 11.68 35.58 12.21L35.58 12.21L35.58 12.21Q34.82 12.74 33.80 12.74L33.80 12.74L33.80 12.74Q32.83 12.74 32.18 12.47L32.18 12.47L32.18 12.47Q31.53 12.19 31.07 11.72L31.07 11.72L32.13 10.53L32.13 10.53Q32.59 11.08 33.57 11.17L33.57 11.17L33.57 11.17Q34.36 11.17 34.59 10.91L34.59 10.91L34.59 10.91Q34.82 10.66 34.65 10.40L34.65 10.40L34.65 10.40Q34.49 10.14 33.57 10.06L33.57 10.06L33.57 10.06Q32.74 9.96 32.04 9.54L32.04 9.54L32.04 9.54Q31.35 9.13 31.35 7.97L31.35 7.97L31.35 7.97Q31.35 6.91 32.14 6.35L32.14 6.35L32.14 6.35Q32.93 5.80 33.76 5.80L33.76 5.80ZM41.98 10.31L41.98 10.31L41.98 5.84L43.89 5.84L43.89 12.13L43.89 12.13Q43.89 13.56 43.00 14.53L43.00 14.53L43.00 14.53Q42.12 15.49 40.89 15.54L40.89 15.54L40.48 15.59L40.48 15.59Q39.04 15.54 37.88 14.45L37.88 14.45L38.77 13.43L38.77 13.43Q39.59 14.04 40.32 14.11L40.32 14.11L40.32 14.11Q41.21 14.11 41.59 13.67L41.59 13.67L41.59 13.67Q41.98 13.22 41.98 12.40L41.98 12.40L41.98 12.05L41.98 12.05Q41.25 12.67 40.30 12.67L40.30 12.67L40.30 12.67Q39.01 12.67 38.32 11.89L38.32 11.89L38.32 11.89Q37.64 11.10 37.64 10.08L37.64 10.08L37.64 5.84L39.55 5.84L39.55 9.60L39.55 9.60Q39.55 10.28 39.89 10.66L39.89 10.66L39.89 10.66Q40.24 11.03 40.93 11.05L40.93 11.05L40.93 11.05Q41.53 11.01 41.98 10.31Z"></path></g><defs data-v-fde0c5aa=""><linearGradient data-v-fde0c5aa="" gradientTransform="rotate(25)" id="305f3a6e-c238-4d6f-96f8-2b5e04da2bd1" x1="0%" y1="0%" x2="100%" y2="0%"><stop data-v-fde0c5aa="" offset="0%" stop-color="#5268d9" stop-opacity="1"></stop><stop data-v-fde0c5aa="" offset="100%" stop-color="#747bd4" stop-opacity="1"></stop></linearGradient></defs><g data-v-fde0c5aa="" id="ae6a2288-e422-435e-bbc6-8e9794847114" stroke="none" fill="url(#305f3a6e-c238-4d6f-96f8-2b5e04da2bd1)" transform="matrix(1.4974949359893799,0,0,1.4974949359893799,74.11779513648806,33.49777857677221)"><path d="M7.5 46.4l16.9-33.1c3.9-7.6 12.9-10.9 20.8-7.8l40.1 16c11.6 4.6 14 19.9 4.4 27.9l-49 41C31.9 97.9 18.3 94 14.6 83l-8-23.9c-1.5-4.2-1.1-8.8.9-12.7z"></path></g><!----></svg>
